<svg width="182" height="180" viewBox="0 0 182 180" fill="none" xmlns="http://www.w3.org/2000/svg">
<rect width="182" height="180" rx="24" fill="#0059F7"/>
<circle opacity="0.2" cx="91" cy="90" r="56" stroke="white" stroke-width="20"/>
<path opacity="0.2" d="M34.9602 90C34.9602 120.95 60.0501 146.04 91 146.04C121.95 146.04 147.04 120.95 147.04 90C147.04 59.0501 121.95 33.9602 91 33.9602" stroke="white" stroke-width="20" stroke-linecap="round"/>
<path opacity="0.2" d="M91.0001 33.9602C121.95 33.9602 147.04 59.0501 147.04 90C147.04 120.95 121.95 146.04 91.0001 146.04C76.2494 146.04 62.8297 140.341 52.823 131.024" stroke="white" stroke-width="20" stroke-linecap="round"/>
<path opacity="0.6" d="M91 33.9602C121.95 33.9602 147.04 59.0501 147.04 90C147.04 112.296 134.019 131.551 115.167 140.575" stroke="white" stroke-width="20" stroke-linecap="round"/>
<circle cx="34.9601" cy="90.7006" r="1.401" fill="white"/>
<circle cx="52.4725" cy="130.629" r="1.401" fill="white"/>
<circle cx="114.817" cy="140.436" r="1.401" fill="white"/>
<circle cx="91.0001" cy="33.9603" r="1.401" fill="white"/>
<path d="M71.1669 98L77.6229 80.48H80.3829L73.9269 98H71.1669ZM69.9189 90.032C68.9909 90.032 68.2229 89.824 67.6149 89.408C67.0069 88.976 66.5509 88.408 66.2469 87.704C65.9589 87 65.8149 86.232 65.8149 85.4V84.776C65.8149 83.864 65.9669 83.064 66.2709 82.376C66.5749 81.672 67.0309 81.128 67.6389 80.744C68.2629 80.344 69.0229 80.144 69.9189 80.144C70.8469 80.144 71.6149 80.344 72.2229 80.744C72.8309 81.128 73.2869 81.672 73.5909 82.376C73.8949 83.064 74.0469 83.864 74.0469 84.776V85.4C74.0469 86.232 73.8949 87 73.5909 87.704C73.3029 88.408 72.8549 88.976 72.2469 89.408C71.6549 89.824 70.8789 90.032 69.9189 90.032ZM69.9189 87.8C70.4949 87.8 70.9189 87.592 71.1909 87.176C71.4789 86.744 71.6229 86.056 71.6229 85.112C71.6229 84.088 71.4789 83.376 71.1909 82.976C70.9029 82.576 70.4789 82.376 69.9189 82.376C69.3589 82.376 68.9349 82.576 68.6469 82.976C68.3749 83.376 68.2389 84.08 68.2389 85.088C68.2389 86.032 68.3749 86.72 68.6469 87.152C68.9349 87.584 69.3589 87.8 69.9189 87.8ZM81.5109 98.36C80.5829 98.36 79.8149 98.152 79.2069 97.736C78.5989 97.304 78.1429 96.736 77.8389 96.032C77.5509 95.328 77.4069 94.56 77.4069 93.728V93.104C77.4069 92.192 77.5589 91.392 77.8629 90.704C78.1669 90 78.6229 89.456 79.2309 89.072C79.8549 88.672 80.6149 88.472 81.5109 88.472C82.4389 88.472 83.2069 88.672 83.8149 89.072C84.4229 89.456 84.8789 90 85.1829 90.704C85.4869 91.392 85.6389 92.192 85.6389 93.104V93.728C85.6389 94.56 85.4869 95.328 85.1829 96.032C84.8949 96.736 84.4469 97.304 83.8389 97.736C83.2469 98.152 82.4709 98.36 81.5109 98.36ZM81.5109 96.128C82.0869 96.128 82.5109 95.92 82.7829 95.504C83.0709 95.072 83.2149 94.384 83.2149 93.44C83.2149 92.416 83.0709 91.704 82.7829 91.304C82.4949 90.904 82.0709 90.704 81.5109 90.704C80.9509 90.704 80.5269 90.904 80.2389 91.304C79.9669 91.704 79.8309 92.408 79.8309 93.416C79.8309 94.36 79.9669 95.048 80.2389 95.48C80.5269 95.912 80.9509 96.128 81.5109 96.128ZM93.4858 79.976C94.7818 79.976 95.8778 80.2 96.7738 80.648C97.6858 81.08 98.4218 81.68 98.9818 82.448C99.5418 83.216 99.9498 84.112 100.206 85.136C100.462 86.144 100.59 87.216 100.59 88.352V89.408C100.59 92.272 99.8618 94.448 98.4058 95.936C96.9658 97.408 94.8458 98.144 92.0458 98.144C91.4378 98.144 90.8698 98.128 90.3418 98.096C89.8138 98.064 89.2858 98.016 88.7578 97.952V95.096C89.2858 95.16 89.8218 95.208 90.3658 95.24C90.9258 95.272 91.5258 95.288 92.1658 95.288C93.5098 95.288 94.5658 95.056 95.3338 94.592C96.1018 94.128 96.6458 93.448 96.9658 92.552C97.3018 91.656 97.4698 90.544 97.4698 89.216V87.656L98.2378 86.552C98.2218 87.784 97.9738 88.808 97.4938 89.624C97.0298 90.424 96.3818 91.032 95.5498 91.448C94.7178 91.848 93.7658 92.048 92.6938 92.048C91.4458 92.048 90.3818 91.8 89.5018 91.304C88.6218 90.808 87.9418 90.12 87.4618 89.24C86.9978 88.36 86.7658 87.336 86.7658 86.168C86.7658 84.952 87.0378 83.88 87.5818 82.952C88.1258 82.008 88.8938 81.28 89.8858 80.768C90.8938 80.24 92.0938 79.976 93.4858 79.976ZM93.5578 82.832C92.8058 82.832 92.1658 82.976 91.6378 83.264C91.1098 83.536 90.7098 83.92 90.4378 84.416C90.1658 84.912 90.0298 85.48 90.0298 86.12C90.0298 86.776 90.1578 87.352 90.4138 87.848C90.6858 88.344 91.0778 88.728 91.5898 89C92.1018 89.272 92.7178 89.408 93.4378 89.408C94.1258 89.408 94.7498 89.288 95.3098 89.048C95.8858 88.792 96.3338 88.424 96.6538 87.944C96.9898 87.448 97.1578 86.84 97.1578 86.12C97.1578 85.496 97.0218 84.936 96.7498 84.44C96.4938 83.944 96.0938 83.552 95.5498 83.264C95.0218 82.976 94.3578 82.832 93.5578 82.832ZM110.087 98.504C108.791 98.504 107.687 98.288 106.775 97.856C105.879 97.408 105.151 96.8 104.591 96.032C104.031 95.264 103.623 94.376 103.367 93.368C103.111 92.344 102.983 91.264 102.983 90.128V89.072C102.983 86.208 103.703 84.04 105.143 82.568C106.599 81.08 108.727 80.336 111.527 80.336C112.135 80.336 112.703 80.352 113.231 80.384C113.759 80.416 114.287 80.464 114.815 80.528V83.384C114.287 83.32 113.743 83.272 113.183 83.24C112.639 83.208 112.047 83.192 111.407 83.192C110.063 83.192 109.007 83.424 108.239 83.888C107.471 84.352 106.919 85.032 106.583 85.928C106.263 86.824 106.103 87.936 106.103 89.264V90.824L105.335 91.928C105.351 90.696 105.591 89.68 106.055 88.88C106.535 88.064 107.191 87.456 108.023 87.056C108.855 86.64 109.807 86.432 110.879 86.432C112.127 86.432 113.191 86.68 114.071 87.176C114.951 87.672 115.623 88.36 116.087 89.24C116.567 90.12 116.807 91.144 116.807 92.312C116.807 93.528 116.535 94.608 115.991 95.552C115.447 96.48 114.671 97.208 113.663 97.736C112.671 98.248 111.479 98.504 110.087 98.504ZM110.015 95.648C110.767 95.648 111.407 95.512 111.935 95.24C112.463 94.952 112.863 94.56 113.135 94.064C113.407 93.568 113.543 93 113.543 92.36C113.543 91.704 113.407 91.128 113.135 90.632C112.879 90.136 112.495 89.752 111.983 89.48C111.471 89.208 110.855 89.072 110.135 89.072C109.447 89.072 108.815 89.2 108.239 89.456C107.679 89.696 107.231 90.064 106.895 90.56C106.575 91.04 106.415 91.64 106.415 92.36C106.415 92.984 106.543 93.544 106.799 94.04C107.071 94.536 107.471 94.928 107.999 95.216C108.543 95.504 109.215 95.648 110.015 95.648Z" fill="white"/>
</svg>
