<svg width="32" height="32" viewBox="0 0 32 32" fill="none" xmlns="http://www.w3.org/2000/svg">
<path d="M28.0001 4C28.3537 4 28.6928 4.14048 28.9429 4.39052C29.1929 4.64057 29.3334 4.97971 29.3334 5.33333V12.6667C28.4494 12.6667 27.6015 13.0179 26.9764 13.643C26.3513 14.2681 26.0001 15.1159 26.0001 16C26.0001 16.8841 26.3513 17.7319 26.9764 18.357C27.6015 18.9821 28.4494 19.3333 29.3334 19.3333V26.6667C29.3334 27.0203 29.1929 27.3594 28.9429 27.6095C28.6928 27.8595 28.3537 28 28.0001 28H4.00008C3.64646 28 3.30732 27.8595 3.05727 27.6095C2.80722 27.3594 2.66675 27.0203 2.66675 26.6667V19.3333C3.5508 19.3333 4.39865 18.9821 5.02377 18.357C5.64889 17.7319 6.00008 16.8841 6.00008 16C6.00008 15.1159 5.64889 14.2681 5.02377 13.643C4.39865 13.0179 3.5508 12.6667 2.66675 12.6667V5.33333C2.66675 4.97971 2.80722 4.64057 3.05727 4.39052C3.30732 4.14048 3.64646 4 4.00008 4H28.0001ZM21.3334 12H10.6667V20H21.3334V12Z" fill="#0059F7"/>
</svg>
